<svg xmlns="http://www.w3.org/2000/svg" version="1.1" xmlns:xlink="http://www.w3.org/1999/xlink" xmlns:svgjs="http://svgjs.com/svgjs" width="512" height="512" x="0" y="0" viewBox="0 0 436.6 364.319" style="enable-background:new 0 0 512 512" xml:space="preserve" class=""><g><path d="M122.787 0v281.89H86.728v5.284H436.6v-5.284h-15.36V0H409.09v3.865H278.087V0h-12.148v3.865H134.934V0zm143.152 102.46v74.299h-5.373v-18.58h-58.29v18.58h-3.98v-18.58h-58.29v18.58h-5.072v-74.3zm143.152 0v74.299h-2.957v-22.425h-22.363v22.425h-3.348v-22.425H358.06v22.425h-3.348v-22.425H332.35v22.425h-3.347v-22.425h-22.364v22.425h-3.347v-22.425h-22.364v22.425h-2.84v-74.3zm0 160.745h-5.245v-17.713h-58.29v17.713h-3.98v-17.713h-58.29v17.713h-5.2v-74.298h131.005v74.298zM222.66 233.941v29.264h-3.27v-29.264h-38.206v29.264h-3.27v-29.264h-38.205v29.264h-4.774v-74.298H265.94v74.298h-5.074v-29.264zm-87.725 41.412H265.94v6.537H134.934zm143.153 6.537v-6.537H409.09v6.537zM409.09 16.013v74.299h-2.957v-22.67h-22.363v22.67h-3.348v-22.67H358.06v22.67h-3.348v-22.67H332.35v22.67h-3.347v-22.67h-22.364v22.67h-3.347v-22.67h-22.364v22.67h-2.84V16.013zm-143.152 0v74.299h-8.145V70.127H221.81v20.185h-4.51V70.127h-35.983v20.185h-46.383V16.013z" fill="#d3d1e0" data-original="#000000" class=""></path><path d="M139.708 200.991h38.206v30.001h-38.206zM181.183 200.991h38.206v30.001h-38.206zM222.659 200.991h38.206v30.001h-38.206zM283.287 222.967h58.29v19.001h-58.29zM283.287 200.441h58.29v19.001h-58.29zM345.556 222.967h58.29v19.001h-58.29zM345.556 200.441h58.29v19.001h-58.29zM294.18 127.553h22.363v23.376H294.18zM319.891 127.553h22.363v23.376h-22.363zM345.601 127.553h22.363v23.376h-22.363zM371.312 127.553h22.363v23.376h-22.363zM294.18 40.861h22.363v23.376H294.18zM319.891 40.861h22.363v23.376h-22.363zM345.601 40.861h22.363v23.376h-22.363zM371.312 40.861h22.363v23.376h-22.363zM140.007 135.653h58.29v19.001h-58.29zM140.007 113.128h58.29v19.001h-58.29zM202.276 135.653h58.29v19.001h-58.29zM202.276 113.128h58.29v19.001h-58.29zM209.479 45.279h35.984v20.983h-35.984zM107.517 193.24l-7.845 24.145a10.92 10.92 0 0 1 3.471 1.627l8.699-26.773c.536-1.65-.375-3-2.025-3h-28.73a54.367 54.367 0 0 1 1.701 4z" fill="#d3d1e0" data-original="#000000" class=""></path><path d="M85.503 218.568c-.814-6.091-1.819-11.518-3-16.188l-.001-.003c-4.219-16.672-10.577-22.276-15.466-23.936l-.14-.64a1.997 1.997 0 0 0-3.907.02l-.024.002.01.043c-.047.256-.046.526.014.796l7.985 36.23c.13.592.51 1.062 1.004 1.329v14.42l2.881 1.317c6.873 3.142 19.18 3.922 21.578 4.047a7.999 7.999 0 0 0 8.402-7.57 8.002 8.002 0 0 0-7.568-8.409c-3.257-.172-8.089-.692-11.768-1.458zM15.275 240.6v-25.587a1.996 1.996 0 0 0 1.256-1.44l7.733-34.909c.06-.27.061-.54.014-.797l.01-.04h-.022a1.997 1.997 0 0 0-3.908-.028l-.133.6c-1.652.482-3.5 1.327-5.416 2.781-.09.068-.172.15-.261.22-8.339 6.559-13.095 21.07-14.524 44.368-.229 3.727 1.16 7.22 3.91 9.838 2.417 2.3 5.9 3.76 9.773 4.663.517.12 1.04.23 1.568.332z" fill="#d3d1e0" data-original="#000000" class=""></path><path d="M70.799 261.378v-9.026h.697a2 2 0 0 0 0-4h-26.12v-13.881h22.25v-4.595h-22.25v-6.829h22.25v-4.594h-22.25v-36.826h-3.5v36.826h-22.25v4.594h22.25v6.83h-22.25v4.594h22.25v13.881H15.24c-.619 0-1.165.287-1.532.729-.288.346-.468.786-.468 1.271s.18.925.468 1.271c.367.442.913.73 1.532.73h1.468V351.955c0 6.83 5.537 12.363 12.363 12.363 6.828 0 12.365-5.533 12.365-12.363v-90.272h4.635v90.272c0 6.83 5.537 12.363 12.363 12.363 6.829 0 12.366-5.533 12.366-12.363zM49.734 174.835c.626-.1 1.253-.22 1.88-.375 12.063-2.979 19.428-15.175 16.449-27.238a22.671 22.671 0 0 0-1-3.075l-43.234 10.678c.106 1.059.284 2.123.546 3.186 2.23 9.032 9.628 15.429 18.267 16.824 2.3.371 4.69.383 7.092 0zM20.672 147.327a3.016 3.016 0 0 0-2.204 3.652 3.016 3.016 0 0 0 3.651 2.208l33.252-8.212 12.051-2.977.39-.096a3.016 3.016 0 0 0 2.205-3.654 3.016 3.016 0 0 0-3.653-2.206l-.404.1c-.178-.65-.38-1.288-.61-1.91-2.387-6.467-7.463-11.34-13.612-13.636l.443 1.793a2.388 2.388 0 1 1-4.636 1.145l-1.042-4.219a22.985 22.985 0 0 0-6.039.047l1.379 5.58a2.388 2.388 0 1 1-4.636 1.146l-1.378-5.58a22.98 22.98 0 0 0-5.366 2.77l1.042 4.218a2.388 2.388 0 1 1-4.636 1.145l-.443-1.792c-4.372 4.894-6.595 11.569-5.698 18.404.087.657.205 1.315.35 1.974z" fill="#d3d1e0" data-original="#000000" class=""></path></g></svg>