<svg xmlns="http://www.w3.org/2000/svg" version="1.1" xmlns:xlink="http://www.w3.org/1999/xlink" xmlns:svgjs="http://svgjs.com/svgjs" width="512" height="512" x="0" y="0" viewBox="0 0 450 450" style="enable-background:new 0 0 512 512" xml:space="preserve" class=""><g><path d="M441.3 348.7H9.3c-2.8 0-5-2.2-5-5s2.2-5 5-5h432c2.8 0 5 2.2 5 5s-2.3 5-5 5zM417.6 310.8H198.7c-11.1 0-20.1-9-20.1-20.1s9-20.1 20.1-20.1h218.9c11.1 0 20.1 9 20.1 20.1s-9 20.1-20.1 20.1zm-218.9-30.2c-5.6 0-10.1 4.5-10.1 10.1 0 5.5 4.5 10.1 10.1 10.1h218.9c5.5 0 10.1-4.5 10.1-10.1 0-5.5-4.5-10.1-10.1-10.1z" fill="#d3d1e0" data-original="#000000" class=""></path><path d="M416.7 280.6c-2.8 0-5-2.2-5-5v-26.5c0-15.9-12.9-28.8-28.8-28.8H233.4c-15.9 0-28.8 12.9-28.8 28.8v26.5c0 2.8-2.2 5-5 5s-5-2.2-5-5v-26.5c0-21.4 17.4-38.8 38.8-38.8h149.5c21.4 0 38.8 17.4 38.8 38.8v26.5c0 2.8-2.2 5-5 5zM244.1 348.7h-23.2c-8.6 0-15.6-7-15.6-15.6v-27.3c0-2.8 2.2-5 5-5s5 2.2 5 5v27.3c0 3.1 2.5 5.6 5.6 5.6h23.2c3.1 0 5.6-2.5 5.6-5.6v-27.3c0-2.8 2.2-5 5-5s5 2.2 5 5v27.3c0 8.6-7 15.6-15.6 15.6zM395.4 348.7h-23.2c-8.6 0-15.6-7-15.6-15.6v-27.3c0-2.8 2.2-5 5-5s5 2.2 5 5v27.3c0 3.1 2.5 5.6 5.6 5.6h23.2c3.1 0 5.6-2.5 5.6-5.6v-27.3c0-2.8 2.2-5 5-5s5 2.2 5 5v27.3c0 8.6-7 15.6-15.6 15.6z" fill="#d3d1e0" data-original="#000000" class=""></path><path d="M403.8 227.6c-2.3 0-4.4-1.6-4.9-4l-12.2-57.1c-1.2-5.6-6.4-24.1-23.1-24.1H252.8c-16.7 0-21.9 18.4-23.1 24.1l-12.2 57.1c-.6 2.7-3.2 4.4-5.9 3.9-2.7-.6-4.4-3.2-3.9-5.9l12.2-57.1c4.2-19.7 16.8-32 32.9-32h110.8c16.1 0 28.7 12.3 32.9 32l12.2 57.1c.6 2.7-1.1 5.4-3.9 5.9-.3 0-.7.1-1 .1z" fill="#d3d1e0" data-original="#000000" class=""></path><path d="M382.5 220.3c-2.3 0-4.4-1.6-4.9-4l-9.7-45.8c-1.2-5.7-3.5-8.8-4.3-8.8H252.8c-.8 0-3.1 3.1-4.3 8.8l-9.7 45.8c-.6 2.7-3.2 4.4-5.9 3.9-2.7-.6-4.4-3.2-3.9-5.9l9.7-45.8c2.3-10.6 7.4-16.7 14.1-16.7h110.8c6.7 0 11.8 6.1 14.1 16.7l9.7 45.8c.6 2.7-1.1 5.4-3.9 5.9-.4.1-.7.1-1 .1zM264.7 263.5h-34.9c-5.8 0-10.6-4.8-10.6-10.6V238c0-5.8 4.8-10.6 10.6-10.6h34.9c5.8 0 10.6 4.8 10.6 10.6v14.9c0 5.8-4.8 10.6-10.6 10.6zm-34.9-26.1c-.3 0-.6.3-.6.6v14.9c0 .3.3.6.6.6h34.9c.3 0 .6-.3.6-.6V238c0-.3-.3-.6-.6-.6zM386.5 263.5h-34.9c-5.8 0-10.6-4.8-10.6-10.6V238c0-5.8 4.8-10.6 10.6-10.6h34.9c5.8 0 10.6 4.8 10.6 10.6v14.9c0 5.8-4.7 10.6-10.6 10.6zm-34.9-26.1c-.3 0-.6.3-.6.6v14.9c0 .3.3.6.6.6h34.9c.3 0 .6-.3.6-.6V238c0-.3-.3-.6-.6-.6zM290 262.5c-2.8 0-5-2.2-5-5v-24.2c0-2.8 2.2-5 5-5s5 2.2 5 5v24.2c0 2.8-2.2 5-5 5zM308.2 267.9c-2.8 0-5-2.2-5-5V228c0-2.8 2.2-5 5-5s5 2.2 5 5v34.9c0 2.8-2.3 5-5 5zM326.3 262.5c-2.8 0-5-2.2-5-5v-24.2c0-2.8 2.2-5 5-5s5 2.2 5 5v24.2c0 2.8-2.2 5-5 5zM212.6 227.6h-13.7c-9 0-16.4-7.3-16.5-16.3 0-2.8 2.2-5 4.9-5.1h.1c2.7 0 5 2.2 5 4.9.1 3.5 2.9 6.4 6.5 6.4h13.7c2.8 0 5 2.2 5 5s-2.3 5.1-5 5.1z" fill="#d3d1e0" data-original="#000000" class=""></path><path d="M187.4 216.2c-9.2 0-16.6-7.5-16.6-16.6s7.5-16.6 16.6-16.6 16.6 7.5 16.6 16.6-7.5 16.6-16.6 16.6zm0-23.2c-3.6 0-6.6 3-6.6 6.6s3 6.6 6.6 6.6 6.6-3 6.6-6.6-3-6.6-6.6-6.6zM417.5 227.6h-13.7c-2.8 0-5-2.2-5-5s2.2-5 5-5h13.7c3.5 0 6.4-2.9 6.5-6.4 0-2.7 2.3-4.9 5-4.9h.1c2.8 0 5 2.3 4.9 5.1-.1 8.9-7.5 16.2-16.5 16.2z" fill="#d3d1e0" data-original="#000000" class=""></path><path d="M429 216.2c-9.2 0-16.6-7.5-16.6-16.6S419.8 183 429 183s16.6 7.5 16.6 16.6-7.5 16.6-16.6 16.6zm0-23.2c-3.6 0-6.6 3-6.6 6.6s3 6.6 6.6 6.6 6.6-3 6.6-6.6-3-6.6-6.6-6.6zM152.9 348.7c-2.8 0-5-2.2-5-5s2.2-5 5-5c5 0 9.1-4.1 9.1-9.1V157.8c0-5-4.1-9.1-9.1-9.1h-18.7c-2.8 0-5-2.2-5-5s2.2-5 5-5h18.7c10.5 0 19.1 8.6 19.1 19.1v171.8c-.1 10.5-8.6 19.1-19.1 19.1zm-128.9 0c-10.5 0-19.1-8.5-19.1-19.1V157.8c0-10.5 8.6-19.1 19.1-19.1h18.7c2.8 0 5 2.2 5 5s-2.2 5-5 5H24c-5 0-9.1 4.1-9.1 9.1v171.8c0 5 4.1 9.1 9.1 9.1 2.8 0 5 2.2 5 5s-2.2 5-5 5z" fill="#d3d1e0" data-original="#000000" class=""></path><path d="M113.8 173.7H63c-13.9 0-25.3-11.4-25.3-25.3V141c0-9.9 8-17.9 17.9-17.9h8c2.3-11.6 12.6-20.3 24.8-20.3s22.5 8.7 24.8 20.3h8c9.9 0 17.9 8 17.9 17.9v7.4c0 14-11.3 25.3-25.3 25.3zm-58.2-40.6c-4.4 0-7.9 3.6-7.9 7.9v7.4c0 8.4 6.9 15.3 15.3 15.3h50.8c8.4 0 15.3-6.9 15.3-15.3V141c0-4.4-3.6-7.9-7.9-7.9h-12.5c-2.8 0-5-2.2-5-5 0-8.4-6.9-15.3-15.3-15.3s-15.3 6.9-15.3 15.3c0 2.8-2.2 5-5 5z" fill="#d3d1e0" data-original="#000000" class=""></path><path d="M88.4 144.5c-7.2 0-13.1-5.9-13.1-13.1s5.9-13.1 13.1-13.1 13.1 5.9 13.1 13.1c0 7.3-5.9 13.1-13.1 13.1zm0-16.1c-1.7 0-3.1 1.4-3.1 3.1s1.4 3.1 3.1 3.1 3.1-1.4 3.1-3.1-1.4-3.1-3.1-3.1zM142.7 334.9H56.4c-1.3 0-2.6-.5-3.6-1.5-9.2-9.4-22.3-22.8-31.6-32.4-.9-.9-1.4-2.2-1.4-3.5V167.8c0-7.9 6.5-14.4 14.4-14.4h11.2c2.8 0 5 2.2 5 5s-2.2 5-5 5H34.1c-2.4 0-4.4 2-4.4 4.4v127.6c8.7 8.9 20.1 20.6 28.7 29.4h84.2c2.4 0 4.4-2 4.4-4.4V167.8c0-2.4-2-4.4-4.4-4.4h-11.2c-2.8 0-5-2.2-5-5s2.2-5 5-5h11.2c7.9 0 14.4 6.5 14.4 14.4v152.7c.1 7.9-6.4 14.4-14.3 14.4z" fill="#d3d1e0" data-original="#000000" class=""></path><path d="M56.4 334.9c-2.8 0-5-2.2-5-5v-23c0-2.4-2-4.4-4.4-4.4H24.7c-2.8 0-5-2.2-5-5s2.2-5 5-5H47c7.9 0 14.4 6.5 14.4 14.4v23c0 2.8-2.3 5-5 5zM122.2 303.9h-34c-2.8 0-5-2.2-5-5s2.2-5 5-5h34c2.8 0 5 2.2 5 5s-2.2 5-5 5zM122.2 322.4h-34c-2.8 0-5-2.2-5-5s2.2-5 5-5h34c2.8 0 5 2.2 5 5s-2.2 5-5 5zM122.2 269.9h-68c-2.8 0-5-2.2-5-5s2.2-5 5-5h68c2.8 0 5 2.2 5 5s-2.2 5-5 5zM122.2 247.9h-68c-2.8 0-5-2.2-5-5s2.2-5 5-5h68c2.8 0 5 2.2 5 5s-2.2 5-5 5zM122.2 225.9h-68c-2.8 0-5-2.2-5-5s2.2-5 5-5h68c2.8 0 5 2.2 5 5s-2.2 5-5 5zM122.2 204h-68c-2.8 0-5-2.2-5-5s2.2-5 5-5h68c2.8 0 5 2.2 5 5s-2.2 5-5 5z" fill="#d3d1e0" data-original="#000000" class=""></path></g></svg>